<svg width="197" height="82" viewBox="0 0 197 82" fill="none" xmlns="http://www.w3.org/2000/svg">
<path d="M122.326 35.2139C122.326 36.536 122.014 37.7832 121.391 38.9556C120.767 40.1279 119.769 41.0883 118.397 41.8366C117.025 42.56 115.267 42.9217 113.122 42.9217H108.407V53.473H104.142V27.4688H113.122C115.117 27.4688 116.801 27.818 118.173 28.5164C119.57 29.1899 120.605 30.1129 121.278 31.2852C121.977 32.4576 122.326 33.7672 122.326 35.2139ZM113.122 39.442C114.743 39.442 115.953 39.0803 116.751 38.3569C117.549 37.6086 117.948 36.5609 117.948 35.2139C117.948 32.3703 116.339 30.9485 113.122 30.9485H108.407V39.442H113.122ZM130.659 25.7851V53.473H126.394V25.7851H130.659ZM154.93 32.8567V53.473H150.665V51.041C149.991 51.8891 149.106 52.5626 148.008 53.0614C146.936 53.5354 145.788 53.7724 144.566 53.7724C142.945 53.7724 141.485 53.4356 140.188 52.7621C138.916 52.0886 137.906 51.0909 137.158 49.7688C136.434 48.4468 136.073 46.8504 136.073 44.9796V32.8567H140.301V44.3435C140.301 46.1893 140.762 47.6112 141.685 48.6089C142.608 49.5817 143.868 50.0682 145.464 50.0682C147.06 50.0682 148.32 49.5817 149.243 48.6089C150.191 47.6112 150.665 46.1893 150.665 44.3435V32.8567H154.93ZM165.535 36.3364V47.7484C165.535 48.5216 165.709 49.0829 166.058 49.4321C166.433 49.7564 167.056 49.9185 167.929 49.9185H170.548V53.473H167.181C165.26 53.473 163.788 53.024 162.766 52.126C161.743 51.2281 161.232 49.7688 161.232 47.7484V36.3364H158.8V32.8567H161.232V27.7307H165.535V32.8567H170.548V36.3364H165.535ZM183.422 53.8098C181.476 53.8098 179.718 53.3732 178.146 52.5002C176.575 51.6022 175.34 50.355 174.442 48.7586C173.544 47.1372 173.095 45.2664 173.095 43.1462C173.095 41.0509 173.557 39.1925 174.48 37.5712C175.403 35.9498 176.662 34.7026 178.259 33.8295C179.855 32.9565 181.639 32.52 183.609 32.52C185.58 32.52 187.363 32.9565 188.96 33.8295C190.556 34.7026 191.816 35.9498 192.739 37.5712C193.662 39.1925 194.123 41.0509 194.123 43.1462C194.123 45.2415 193.649 47.0998 192.701 48.7212C191.753 50.3425 190.456 51.6022 188.81 52.5002C187.189 53.3732 185.393 53.8098 183.422 53.8098ZM183.422 50.1056C184.52 50.1056 185.542 49.8437 186.49 49.3198C187.463 48.796 188.249 48.0103 188.847 46.9626C189.446 45.915 189.745 44.6428 189.745 43.1462C189.745 41.6495 189.459 40.3898 188.885 39.3671C188.311 38.3195 187.55 37.5337 186.602 37.0099C185.655 36.4861 184.632 36.2242 183.534 36.2242C182.437 36.2242 181.414 36.4861 180.466 37.0099C179.543 37.5337 178.807 38.3195 178.259 39.3671C177.71 40.3898 177.436 41.6495 177.436 43.1462C177.436 45.3662 177.997 47.0873 179.119 48.3096C180.267 49.5069 181.701 50.1056 183.422 50.1056Z" fill="white"/>
<rect opacity="0.2" width="74.8323" height="74.8323" rx="37.4161" fill="white"/>
<rect x="32.739" y="31.1802" width="49.8882" height="49.8882" rx="24.9441" fill="white"/>
</svg>
